<?xml version="1.0" encoding="utf-8"?>
<!-- Generator: Adobe Illustrator 17.1.0, SVG Export Plug-In . SVG Version: 6.00 Build 0)  -->
<!DOCTYPE svg PUBLIC "-//W3C//DTD SVG 1.1//EN" "http://www.w3.org/Graphics/SVG/1.1/DTD/svg11.dtd">
<svg version="1.1" xmlns="http://www.w3.org/2000/svg" xmlns:xlink="http://www.w3.org/1999/xlink" x="0px" y="0px"
	 viewBox="0 0 300 300" enable-background="new 0 0 300 300" xml:space="preserve">
<g id="background">
</g>
<g id="_x31__1_">
	<g>
		<g>
			<path fill="#3B3738" d="M229.8,81.8c-18.9-21.3-48.2-35.1-81.4-35.1c-34.8,0-71.1,19.2-84.1,43.8c39.1-4.3,87.2-9.8,140.5-1.7
				C213.2,86.1,221.3,83.8,229.8,81.8z"/>
			<path fill="#3B3738" d="M0.3,149.6l45-17.5c-0.1,1.9-0.2,3.9-0.2,5.8c0,10.1,1.9,19.8,5.4,28.8c19.3-14.4,47-31.2,78.5-46.5
				c0,0,0,0,0,0c0.1,0,0.2-0.1,0.3-0.1c1.4-4,4.3-2.5,5.6-5.9c0.1-0.3,2.8-5.9,2.9-6.2c0,0,0,0,0,0c-38.2,0.4-69,8-89.3,14.2
				C14.3,132.5,0.3,149.6,0.3,149.6z"/>
			<path fill="#3B3738" d="M50.5,166.7c-0.1,0.1-0.2,0.1-0.2,0.2c8.7,22.3,27.1,40.6,50.8,51.2c2.2,1,16.9,6.2,16.9,6.2
				c-0.5-1.5-0.1-2.9-0.5-4.4c-8.6-33.4,1.7-72.8,11.5-99.6C97.5,135.5,69.8,152.3,50.5,166.7C50.6,166.7,50.6,166.7,50.5,166.7z"/>
			<path fill="#3B3738" d="M243.2,101.1c-2.7-6-9.7-15.1-13.4-19.3c-8.4,2.1-16.9,4.4-25.3,7.1C215.9,90.6,231.2,98.6,243.2,101.1z"
				/>
			<path fill="#3B3738" d="M300,149.6c0,0-16.1-16.6-50.3-26.7c-20.2-6-49.7-12.4-88.1-14.1c0,0.1-0.1,0.1-0.1,0.2
				c-0.3,0.7-0.5,1.5-0.8,2.2c-11.5,32.2-16.7,84,2.3,115.7c4.6,7.6,6.2,11.9,14,16.6l-3.8-18.3c44.9-9.8,78.1-45.2,78.1-87.3
				c0-1.9-0.1-3.7-0.2-5.6L300,149.6z"/>
			<path fill="#3B3738" d="M50.5,166.7C50.6,166.7,50.6,166.7,50.5,166.7c19.3-14.4,47-31.1,78.5-46.4c0,0,0,0,0,0
				C97.5,135.5,69.9,152.2,50.5,166.7z"/>
			<path fill="#3B3738" d="M0.3,149.6L41,138c-4.8,76.6,79.5,93.4,79.5,93.4c-0.5-1.5-3.5-0.8-4-2.4c-8.8-34,1.5-74.1,11.5-101.4
				c1.5-4,2.9-7.8,4.3-11.2c0.1-0.3,0.2-0.6,0.4-0.9c0,0,0,0,0,0c-38.9,0.4-67.6,5.5-88.3,11.8C9.6,138,0.3,149.6,0.3,149.6z"/>
		</g>
		<g>
			
				<radialGradient id="SVGID_1_" cx="110.853" cy="64.9226" r="167.5165" gradientTransform="matrix(1 0 0 0.8717 0 9.4383)" gradientUnits="userSpaceOnUse">
				<stop  offset="0" style="stop-color:#A1A1A1"/>
				<stop  offset="0.569" style="stop-color:#9F9F9F"/>
				<stop  offset="0.774" style="stop-color:#98999A"/>
				<stop  offset="0.9196" style="stop-color:#8D8E91"/>
				<stop  offset="1" style="stop-color:#828488"/>
			</radialGradient>
			<path fill="url(#SVGID_1_)" d="M130.6,125.4c-32.2,15.6-60.5,32.8-80.2,47.5c-3.6-9.2-5.6-19.1-5.6-29.5c0-2,0.1-4,0.2-5.9
				L0,149.6c0,0,12.2-13.9,47-24.5c20.7-6.3,49.4-11.5,88.3-11.8c0,0,0,0,0,0c-0.1,0.3-0.2,0.6-0.4,0.9
				C133.5,117.6,132.1,121.4,130.6,125.4z M150,51.8c-35.4,0-66.7,15.3-85.7,38.7c39.8-4.4,88.9-4,143.1,4.1
				c8.6-2.7,17.2-5.1,25.8-7.2C213.9,65.8,183.8,51.8,150,51.8z"/>
			
				<radialGradient id="SVGID_2_" cx="110.853" cy="55.1955" r="234.1822" gradientTransform="matrix(1 0 0 0.8717 0 9.4383)" gradientUnits="userSpaceOnUse">
				<stop  offset="0" style="stop-color:#A1A1A1"/>
				<stop  offset="1" style="stop-color:#828488"/>
			</radialGradient>
			<path fill="url(#SVGID_2_)" d="M300,149.6l-45.1-11.9c0.1,1.9,0.2,3.8,0.2,5.7c0,42.9-33.8,78.9-79.5,88.9l8.5,21
				c-8-4.8-14.2-11.4-18.9-19.2c-19.4-32.2-12.8-85.1-1.1-117.8c0.3-0.8,0.5-1.5,0.8-2.2c0-0.1,0-0.1,0.1-0.2
				c39.1,1.8,67.8,7.2,88.3,13.2C288.3,137.4,300,149.6,300,149.6z M233.1,87.4c-8.6,2.1-17.2,4.5-25.8,7.2
				c11.7,1.8,23.6,3.9,35.8,6.4C240.3,96.2,236.9,91.7,233.1,87.4z M102.1,225.1c8,3.8,18.4,6.4,18.4,6.4c-0.5-1.5-1-3-1.4-4.6
				c-8.8-34,1.5-74.1,11.5-101.4c-32.2,15.6-60.5,32.8-80.2,47.5C59.3,195.6,78,214.3,102.1,225.1z"/>
		</g>
	</g>
</g>
</svg>
