<?xml version="1.0" encoding="UTF-8" standalone="no"?>
<svg width="225px" height="105px" viewBox="0 0 225 105" version="1.1" xmlns="http://www.w3.org/2000/svg" xmlns:xlink="http://www.w3.org/1999/xlink" xmlns:sketch="http://www.bohemiancoding.com/sketch/ns">
    <title>Untitled 6</title>
    <description>Created with Sketch (http://www.bohemiancoding.com/sketch)</description>
    <defs></defs>
    <g id="Page-1" stroke="none" stroke-width="1" fill="none" fill-rule="evenodd" sketch:type="MSPage">
        <g id="Theisen1" sketch:type="MSLayerGroup" transform="translate(-21.000000, -208.000000)" fill="#343230">
            <path d="M120.055,240.085 C119.949,238.799 119.773,237.538 119.525,236.298 C118.129,229.255 114.395,223.063 107.15,218.708 C93.562,210.531 74.678,208.614 57.856,209.023 C47.755,209.272 28.331,210.293 22.396,220.623 C17.707,228.783 28.784,232.344 34.933,234.073 C49.868,238.279 66.495,239.109 82.426,239.762 C91.854,240.15 101.353,240.295 110.896,240.224 C110.698,238.947 110.373,237.471 110.072,236.386 C106.042,236.399 102.02,236.393 98.013,236.348 C79.844,236.154 61.429,235.332 44.012,231.867 C39.597,230.991 21.2,227.712 26.976,220.056 C29.759,216.368 36.891,215.144 41.072,214.312 C48.582,212.816 56.292,212.603 63.74,212.799 C79.128,213.207 96.365,216.027 107.71,224.943 C110.452,227.1 112.362,229.717 113.64,232.63 C113.917,233.263 114.169,233.917 114.389,234.58 C114.583,235.163 114.751,235.759 114.902,236.36 C115.208,237.597 115.429,238.868 115.571,240.167 C115.646,240.865 115.698,241.57 115.731,242.281 C115.733,242.349 115.738,242.422 115.742,242.491 C116.386,255.585 102.338,290.811 87.015,311.668 C87.153,312.066 87.439,312.477 87.952,312.477 C89.055,312.478 91.486,311.924 92.486,310.983 C92.449,311.096 92.414,311.195 92.384,311.277 C92.411,311.212 92.446,311.134 92.491,311.035 C92.504,311.007 92.525,310.963 92.54,310.931 C96.686,306.967 121.772,260.723 120.055,240.085" id="Fill-499" sketch:type="MSShapeGroup"></path>
            <path d="M245.234,221.633 C214.445,229.141 182.992,233.251 151.687,235.118 C151.106,236.304 150.514,237.486 149.908,238.667 C175.414,236.842 200.988,233.436 226.167,228.445 C232.414,227.207 238.638,225.811 244.843,224.298 C247.257,223.71 245.234,221.633 245.234,221.633" id="Fill-500" sketch:type="MSShapeGroup"></path>
            <path d="M195.227,272.992 C198.049,270.035 198.039,273.799 196.854,275.588 C195.75,277.257 194.041,278.577 191.519,279.578 C192.087,277.253 193.475,274.828 195.227,272.992 L195.227,272.992 Z M222.035,289.332 C223.229,283.321 232.262,261.986 221.791,269.342 C219.056,271.264 214.827,275.442 211.373,279.656 C211.969,277.796 214.405,272.469 215.438,269.192 C215.916,267.677 212.059,267.343 210.727,270.789 C209.1,274.982 199.945,285.579 193.523,286.154 C191.675,286.319 190.589,284.372 191.103,282.088 L192.304,281.561 C196.348,280.355 200.49,276.169 201.629,271.808 C202.246,269.437 199.776,268.267 197.6,268.533 C190.048,269.453 185.222,279.991 186.544,285.3 C188.39,292.713 197.993,289.696 208.789,278.171 C207.791,281.736 205.036,287.577 205.042,288.871 C205.049,290.162 207.073,289.867 208.638,287.29 C211.791,282.088 225.459,267.731 222.711,276.102 C221.485,279.847 214.754,291.991 219.28,294.972 C220.728,295.926 223.454,295.927 225.551,293.306 C224.409,293.386 220.963,294.749 222.035,289.332 L222.035,289.332 Z" id="Fill-501" sketch:type="MSShapeGroup"></path>
            <path d="M151.225,272.537 C153.426,270.248 153.9,272.001 153.45,273.736 C153.143,275.415 150.071,278.722 146.527,281.476 C146.637,279.109 147.959,275.935 151.225,272.537 L151.225,272.537 Z M129.803,239.749 C130.333,238.489 130.948,237.232 131.628,235.993 C135.072,229.722 140.875,223.974 145.251,221.225 C146.649,220.348 147.638,219.975 148.308,219.975 C151.907,219.975 146.404,230.679 145.946,231.717 C145.383,232.99 144.773,234.259 144.14,235.525 C143.531,236.745 142.888,237.959 142.226,239.169 C141.883,239.796 141.512,240.42 141.156,241.046 C139.868,243.217 137.998,246.344 135.856,249.946 C134.429,252.255 132.994,254.561 131.592,256.863 C131.544,256.818 131.491,256.781 131.442,256.737 C127.234,252.761 127.069,246.235 129.803,239.749 L129.803,239.749 Z M175.499,270.437 C175.164,271.988 175.505,272.777 176.441,273.81 C173.838,277.881 169.837,283.06 165.234,285.093 C164.447,285.44 163.654,285.688 162.999,285.688 C160.674,285.688 160.08,282.573 167.568,269.809 C168.235,268.672 167.597,268.213 166.627,268.213 C165.556,268.213 164.076,268.777 163.536,269.602 C162.501,271.187 158.326,282.09 152.229,284.88 C152.212,284.89 152.197,284.895 152.183,284.904 C152.044,284.967 151.906,285.019 151.765,285.073 C151.048,285.346 150.318,285.524 149.565,285.559 C148.352,285.617 147.385,284.941 146.882,283.762 C149.656,281.824 152.364,279.549 154.334,277.272 C155.81,275.73 156.954,273.873 157.482,271.846 C158.097,269.478 155.776,267.813 153.595,268.08 C146.327,268.964 141.881,278.689 142.458,284.231 C141.245,284.916 140.079,285.445 139.042,285.732 C139.036,285.736 139.029,285.738 139.022,285.738 C138.683,285.834 138.357,285.901 138.048,285.94 C137.001,285.944 136.764,284.914 138.389,281.899 C140.362,278.23 143.533,271.445 142.034,268.94 C141.688,268.265 141.005,267.966 140.123,267.964 C140.013,267.964 139.891,267.985 139.776,267.994 C139.696,267.999 139.625,267.997 139.537,268.005 C139.511,268.006 139.482,268.017 139.454,268.019 C139.386,268.026 139.316,268.042 139.244,268.05 C139.037,268.086 138.828,268.129 138.613,268.188 C138.577,268.196 138.54,268.204 138.502,268.215 C138.368,268.253 138.23,268.298 138.096,268.346 C136.506,268.856 134.777,269.88 133.296,270.971 C125.285,276.874 121.044,283.515 122.777,280.233 L128.547,269.835 L132.784,261.923 C135.225,263.021 138.093,263.748 141.279,264.074 C142.75,264.226 144.267,264.302 145.814,264.302 C154.695,264.302 164.677,262.202 172.351,257.23 C175.377,255.272 174.69,253.361 173.24,252.753 C172.055,252.257 170.263,252.823 170.44,253.296 C171.191,255.261 163.729,260.028 152.689,261.229 C151.011,261.412 149.253,261.474 147.477,261.474 C142.884,261.474 138.178,260.838 134.476,258.872 L136.21,255.75 C139.377,250.177 142.575,244.608 145.53,238.969 C146.16,237.768 146.774,236.562 147.378,235.354 C147.844,234.416 148.322,233.481 148.759,232.534 C156.62,215.625 150.044,213.504 141.686,219.827 C123.693,233.442 120.278,253.886 129.634,260.126 C128.764,261.599 128.228,262.935 119.63,278.316 C116.826,283.411 115.155,287.149 115.056,287.922 C114.74,290.389 118.469,289.81 119.759,288.348 C120.233,287.811 133.585,272.669 137.455,271.59 C139.186,271.608 135.505,278.516 134.864,280.113 C129.694,292.979 138.019,289.458 143.027,286.26 C145.694,291.155 150.458,289.931 157.785,283.508 C157.668,284.841 157.627,289.451 161.049,289.451 C165.677,289.451 174,281.905 178.245,275.646 C180.012,277.322 182.502,280.076 181.532,283.287 C179.465,290.1 174.719,287.052 175.498,285.093 C175.996,283.838 172.725,283.984 172.049,286.56 C170.607,292.06 181.378,293.183 184.506,284.112 C186.474,278.399 181.839,274.328 180.082,272.399 C182.144,267.213 176.346,266.544 175.499,270.437 L175.499,270.437 Z" id="Fill-502" sketch:type="MSShapeGroup"></path>
            <path d="M63.292,219.72 C63.045,220.283 63.123,220.172 63.292,219.72" id="Fill-503" sketch:type="MSShapeGroup"></path>
            <path d="M87.015,311.668 C87.015,311.668 94.29,281.774 90.632,281.685 C96.09,276.993 92.397,308.455 91.614,310.965" id="Fill-504" sketch:type="MSShapeGroup"></path>
        </g>
    </g>
</svg>